G04*
G04 #@! TF.GenerationSoftware,Altium Limited,Altium Designer,25.8.1 (18)*
G04*
G04 Layer_Color=128*
%FSLAX25Y25*%
%MOIN*%
G70*
G04*
G04 #@! TF.SameCoordinates,DBEC15BD-3F7B-4F99-A44D-75583D686E19*
G04*
G04*
G04 #@! TF.FilePolarity,Positive*
G04*
G01*
G75*
%ADD34C,0.00500*%
D34*
X202639Y41145D02*
X208938D01*
X205788Y37995D02*
Y44294D01*
X185262Y78430D02*
X191561D01*
X188411Y75280D02*
Y81579D01*
X341697Y81132D02*
X347996D01*
X344847Y77982D02*
Y84281D01*
X193812Y25437D02*
X200111D01*
X196961Y22287D02*
Y28587D01*
X273361Y32019D02*
X279660D01*
X276511Y28869D02*
Y35168D01*
X195885Y113393D02*
X202185D01*
X199035Y110243D02*
Y116542D01*
X314173Y37157D02*
X320472D01*
X317323Y34008D02*
Y40307D01*
X343551Y152500D02*
X346701D01*
X345126Y150925D02*
Y154075D01*
X351425Y152500D02*
X354575D01*
X353000Y150925D02*
Y154075D01*
X314518Y139686D02*
X317667D01*
X316092Y138111D02*
Y141261D01*
X312923Y163897D02*
X316073D01*
X314498Y162322D02*
Y165472D01*
X239488Y85874D02*
X242559D01*
X241023Y84338D02*
Y87409D01*
X270748Y55874D02*
X273819D01*
X272284Y54339D02*
Y57409D01*
X239488Y65874D02*
X242559D01*
X241023Y64338D02*
Y67409D01*
X316815Y100685D02*
X319965D01*
X318390Y99110D02*
Y102260D01*
X295362Y100685D02*
X298512D01*
X296937Y99110D02*
Y102260D01*
X226138Y121987D02*
X231059D01*
X228598Y119526D02*
Y124447D01*
X270748Y75874D02*
X273819D01*
X272284Y74339D02*
Y77409D01*
X226304Y183267D02*
X231225D01*
X228765Y180807D02*
Y185728D01*
X270748Y65874D02*
X273819D01*
X272284Y64338D02*
Y67409D01*
X270748Y85874D02*
X273819D01*
X272284Y84338D02*
Y87409D01*
X239488Y75874D02*
X242559D01*
X241023Y74339D02*
Y77409D01*
X239488Y55874D02*
X242559D01*
X241023Y54339D02*
Y57409D01*
X393905Y95957D02*
X396976D01*
X395441Y94421D02*
Y97492D01*
X393905Y105957D02*
X396976D01*
X395441Y104421D02*
Y107492D01*
X393905Y85957D02*
X396976D01*
X395441Y84421D02*
Y87492D01*
X393905Y115957D02*
X396976D01*
X395441Y114421D02*
Y117492D01*
X362646Y115957D02*
X365717D01*
X364181Y114421D02*
Y117492D01*
X362646Y105957D02*
X365717D01*
X364181Y104421D02*
Y107492D01*
X362646Y85957D02*
X365717D01*
X364181Y84421D02*
Y87492D01*
X362646Y95957D02*
X365717D01*
X364181Y94421D02*
Y97492D01*
X226304Y174251D02*
X231225D01*
X228765Y171791D02*
Y176712D01*
X226304Y165236D02*
X231225D01*
X228765Y162775D02*
Y167696D01*
X271211Y139686D02*
X274360D01*
X272785Y138111D02*
Y141261D01*
X269616Y163897D02*
X272766D01*
X271191Y162322D02*
Y165472D01*
X431422Y73689D02*
X434572D01*
X432997Y72114D02*
Y75264D01*
X431422Y30382D02*
X434572D01*
X432997Y28807D02*
Y31957D01*
X422925Y126847D02*
X426075D01*
X424500Y125272D02*
Y128421D01*
X422925Y170153D02*
X426075D01*
X424500Y168579D02*
Y171728D01*
X226138Y140018D02*
X231059D01*
X228598Y137557D02*
Y142479D01*
X226138Y131002D02*
X231059D01*
X228598Y128542D02*
Y133463D01*
X324689Y100685D02*
X327838D01*
X326264Y99110D02*
Y102260D01*
X287488Y100685D02*
X290638D01*
X289063Y99110D02*
Y102260D01*
M02*
