G04*
G04 #@! TF.GenerationSoftware,Altium Limited,Altium Designer,25.8.1 (18)*
G04*
G04 Layer_Physical_Order=2*
G04 Layer_Color=16711680*
%FSLAX25Y25*%
%MOIN*%
G70*
G04*
G04 #@! TF.SameCoordinates,DBEC15BD-3F7B-4F99-A44D-75583D686E19*
G04*
G04*
G04 #@! TF.FilePolarity,Positive*
G04*
G01*
G75*
%ADD24C,0.01000*%
%ADD25C,0.10236*%
%ADD26C,0.05150*%
%ADD27C,0.04724*%
%ADD28R,0.04449X0.04449*%
%ADD29C,0.04449*%
%ADD30R,0.07382X0.07382*%
%ADD31C,0.07382*%
D24*
X257554Y41145D02*
X272284Y55874D01*
X205788Y41145D02*
X257554D01*
X188411Y60384D02*
X205788Y41145D01*
X211287Y114744D02*
X225346Y100685D01*
X211287Y165174D02*
X220364Y174251D01*
X211287Y114744D02*
Y165174D01*
X220364Y174251D02*
X228765D01*
X188411Y60384D02*
Y78430D01*
X324616Y81132D02*
X344847D01*
X321748Y84000D02*
X324616Y81132D01*
X321748Y84000D02*
Y97327D01*
X318390Y100685D02*
X321748Y97327D01*
X317856Y37691D02*
X344847Y64681D01*
Y81132D01*
X303435Y194191D02*
X345126Y152500D01*
X206061Y194191D02*
X303435D01*
X167134Y155264D02*
X206061Y194191D01*
X167134Y53000D02*
Y155264D01*
Y53000D02*
X190950Y29184D01*
X196961Y25437D01*
X228765Y165236D02*
X230630Y163370D01*
X270664D01*
X364181Y95957D02*
X375543D01*
X380500Y91000D01*
Y34234D02*
Y91000D01*
X362264Y15997D02*
X380500Y34234D01*
X292532Y15997D02*
X362264D01*
X276511Y32019D02*
X292532Y15997D01*
X199035Y97863D02*
X241023Y55874D01*
X199035Y97863D02*
Y113393D01*
X225346Y100685D02*
X289063D01*
X272620Y139852D02*
X272785Y139686D01*
X228765Y139852D02*
X272620D01*
X228598Y140018D02*
X228765Y139852D01*
X270664Y163370D02*
X271191Y163897D01*
X314498D02*
X333729D01*
X332312Y139686D02*
X345126Y152500D01*
X316092Y139686D02*
X332312D01*
X352193Y85957D02*
X364181D01*
X337465Y100685D02*
X352193Y85957D01*
X326264Y100685D02*
X337465D01*
X289063D02*
X311878Y123500D01*
X381500D01*
X389043Y115957D01*
X395441D01*
X291000Y37157D02*
X317323D01*
X272284Y85874D02*
X272943Y86534D01*
X274912D01*
X289063Y100685D01*
X296937D02*
X318390D01*
X241023Y65874D02*
X252024D01*
X262024Y55874D01*
X272284D01*
X291000Y37157D01*
D25*
X205788Y41145D02*
D03*
X188411Y78430D02*
D03*
X344847Y81132D02*
D03*
X196961Y25437D02*
D03*
X276511Y32019D02*
D03*
X199035Y113393D02*
D03*
X317323Y37157D02*
D03*
D26*
X345126Y152500D02*
D03*
X353000D02*
D03*
X318390Y100685D02*
D03*
X296937D02*
D03*
X326264D02*
D03*
X289063D02*
D03*
D27*
X316092Y139686D02*
D03*
X314498Y163897D02*
D03*
X272785Y139686D02*
D03*
X271191Y163897D02*
D03*
X432997Y73689D02*
D03*
Y30382D02*
D03*
X424500Y126847D02*
D03*
Y170153D02*
D03*
D28*
X241023Y85874D02*
D03*
X364181Y115957D02*
D03*
D29*
X272284Y55874D02*
D03*
X241023Y65874D02*
D03*
X272284Y75874D02*
D03*
Y65874D02*
D03*
Y85874D02*
D03*
X241023Y75874D02*
D03*
Y55874D02*
D03*
X395441Y95957D02*
D03*
Y105957D02*
D03*
Y85957D02*
D03*
Y115957D02*
D03*
X364181Y105957D02*
D03*
Y85957D02*
D03*
Y95957D02*
D03*
D30*
X228598Y121987D02*
D03*
X228765Y165236D02*
D03*
D31*
Y183267D02*
D03*
Y174251D02*
D03*
X228598Y140018D02*
D03*
Y131002D02*
D03*
M02*
