G04*
G04 #@! TF.GenerationSoftware,Altium Limited,Altium Designer,25.8.1 (18)*
G04*
G04 Layer_Physical_Order=1*
G04 Layer_Color=255*
%FSLAX25Y25*%
%MOIN*%
G70*
G04*
G04 #@! TF.SameCoordinates,DBEC15BD-3F7B-4F99-A44D-75583D686E19*
G04*
G04*
G04 #@! TF.FilePolarity,Positive*
G04*
G01*
G75*
G04:AMPARAMS|DCode=16|XSize=47.24mil|YSize=71.65mil|CornerRadius=5.91mil|HoleSize=0mil|Usage=FLASHONLY|Rotation=0.000|XOffset=0mil|YOffset=0mil|HoleType=Round|Shape=RoundedRectangle|*
%AMROUNDEDRECTD16*
21,1,0.04724,0.05984,0,0,0.0*
21,1,0.03543,0.07165,0,0,0.0*
1,1,0.01181,0.01772,-0.02992*
1,1,0.01181,-0.01772,-0.02992*
1,1,0.01181,-0.01772,0.02992*
1,1,0.01181,0.01772,0.02992*
%
%ADD16ROUNDEDRECTD16*%
%ADD17R,0.20000X0.20000*%
G04:AMPARAMS|DCode=18|XSize=47.24mil|YSize=71.65mil|CornerRadius=5.91mil|HoleSize=0mil|Usage=FLASHONLY|Rotation=270.000|XOffset=0mil|YOffset=0mil|HoleType=Round|Shape=RoundedRectangle|*
%AMROUNDEDRECTD18*
21,1,0.04724,0.05984,0,0,270.0*
21,1,0.03543,0.07165,0,0,270.0*
1,1,0.01181,-0.02992,-0.01772*
1,1,0.01181,-0.02992,0.01772*
1,1,0.01181,0.02992,0.01772*
1,1,0.01181,0.02992,-0.01772*
%
%ADD18ROUNDEDRECTD18*%
%ADD19R,0.06969X0.04842*%
%ADD20R,0.04842X0.06969*%
%ADD21R,0.45000X0.20000*%
G04:AMPARAMS|DCode=22|XSize=74.8mil|YSize=24.02mil|CornerRadius=1.8mil|HoleSize=0mil|Usage=FLASHONLY|Rotation=180.000|XOffset=0mil|YOffset=0mil|HoleType=Round|Shape=RoundedRectangle|*
%AMROUNDEDRECTD22*
21,1,0.07480,0.02041,0,0,180.0*
21,1,0.07120,0.02402,0,0,180.0*
1,1,0.00360,-0.03560,0.01021*
1,1,0.00360,0.03560,0.01021*
1,1,0.00360,0.03560,-0.01021*
1,1,0.00360,-0.03560,-0.01021*
%
%ADD22ROUNDEDRECTD22*%
G04:AMPARAMS|DCode=23|XSize=47.64mil|YSize=28.74mil|CornerRadius=2.59mil|HoleSize=0mil|Usage=FLASHONLY|Rotation=90.000|XOffset=0mil|YOffset=0mil|HoleType=Round|Shape=RoundedRectangle|*
%AMROUNDEDRECTD23*
21,1,0.04764,0.02357,0,0,90.0*
21,1,0.04247,0.02874,0,0,90.0*
1,1,0.00517,0.01178,0.02123*
1,1,0.00517,0.01178,-0.02123*
1,1,0.00517,-0.01178,-0.02123*
1,1,0.00517,-0.01178,0.02123*
%
%ADD23ROUNDEDRECTD23*%
%ADD24C,0.01000*%
%ADD25C,0.10236*%
%ADD26C,0.05150*%
%ADD27C,0.04724*%
%ADD28R,0.04449X0.04449*%
%ADD29C,0.04449*%
%ADD30R,0.07382X0.07382*%
%ADD31C,0.07382*%
D16*
X251279Y112825D02*
D03*
X262775D02*
D03*
X262645Y127164D02*
D03*
X262862Y194191D02*
D03*
Y181620D02*
D03*
X251149Y127164D02*
D03*
X251366Y194191D02*
D03*
Y181620D02*
D03*
D17*
X195646Y12344D02*
D03*
X351000Y187500D02*
D03*
X164224Y12617D02*
D03*
X164032Y65035D02*
D03*
X162450Y96882D02*
D03*
X318650Y187500D02*
D03*
X252610Y12686D02*
D03*
X387311Y12500D02*
D03*
X409500D02*
D03*
X225288Y12117D02*
D03*
X280008Y12500D02*
D03*
X425000Y187500D02*
D03*
X387500D02*
D03*
X437000Y12500D02*
D03*
X308000D02*
D03*
D18*
X161500Y32252D02*
D03*
Y43748D02*
D03*
X188815Y138641D02*
D03*
Y127145D02*
D03*
X188611Y165174D02*
D03*
Y153678D02*
D03*
X226260Y40279D02*
D03*
Y28783D02*
D03*
X206720Y72909D02*
D03*
Y61413D02*
D03*
D19*
X180894Y32032D02*
D03*
Y43576D02*
D03*
X221398Y60850D02*
D03*
X171602Y138319D02*
D03*
X168500Y159685D02*
D03*
X171602Y126776D02*
D03*
X168500Y171229D02*
D03*
X221398Y72394D02*
D03*
X417000Y96591D02*
D03*
Y108134D02*
D03*
D20*
X222145Y91768D02*
D03*
X182839Y92209D02*
D03*
X180957Y62163D02*
D03*
X257696Y36657D02*
D03*
X246152D02*
D03*
X194382Y92209D02*
D03*
X192500Y62163D02*
D03*
X210601Y91768D02*
D03*
X349681Y57772D02*
D03*
X361224D02*
D03*
X300039Y81406D02*
D03*
X311583D02*
D03*
X388728Y50346D02*
D03*
X400272D02*
D03*
X387728Y67698D02*
D03*
X399272D02*
D03*
D21*
X347441Y12500D02*
D03*
D22*
X330189Y57531D02*
D03*
Y52531D02*
D03*
X302590Y57531D02*
D03*
Y52531D02*
D03*
Y67532D02*
D03*
Y62532D02*
D03*
X330189D02*
D03*
Y67532D02*
D03*
D23*
X206270Y140985D02*
D03*
Y127757D02*
D03*
X205876Y155391D02*
D03*
Y168619D02*
D03*
D24*
X231250Y50051D02*
X251992D01*
X229305Y51996D02*
X231250Y50051D01*
X169024D02*
X189766D01*
X191711Y51996D01*
X162720Y43748D02*
X169024Y50051D01*
X191711Y51996D02*
X229305D01*
X192955Y41145D02*
X205788D01*
X192445Y41655D02*
X192955Y41145D01*
X182815Y41655D02*
X192445D01*
X180894Y43576D02*
X182815Y41655D01*
X268893Y75874D02*
X272284D01*
X194066Y101264D02*
X243503D01*
X268893Y75874D01*
X226260Y40279D02*
X227107Y41126D01*
X236000D01*
X240469Y36657D01*
X246152D01*
X272943Y65628D02*
X278916D01*
X281976Y62567D01*
Y50650D02*
Y62567D01*
X276511Y45184D02*
X281976Y50650D01*
X272044Y45184D02*
X276511D01*
X263517Y36657D02*
X272044Y45184D01*
X257696Y36657D02*
X263517D01*
X252610Y12686D02*
X257696Y17772D01*
Y36657D01*
X256472Y100685D02*
X268749D01*
X285100Y117036D01*
X309913D01*
X251279Y105878D02*
X256472Y100685D01*
X251279Y105878D02*
Y112825D01*
X245218D02*
X251279D01*
X239546Y107153D02*
X245218Y112825D01*
X213969Y107153D02*
X239546D01*
X246658Y127164D02*
X251149D01*
X243822Y130000D02*
X246658Y127164D01*
X229601Y130000D02*
X243822D01*
X262491Y127011D02*
X262862Y127382D01*
X262338Y114681D02*
X264193Y112825D01*
X262338Y114681D02*
Y115318D01*
X250842D02*
X252113Y114046D01*
X250995Y115471D02*
Y127011D01*
X207729Y113393D02*
X213969Y107153D01*
X262862Y127382D02*
Y181620D01*
X182839Y84002D02*
X188411Y78430D01*
X182839Y84002D02*
Y92209D01*
X236000Y60850D02*
X241023Y65874D01*
X221398Y60850D02*
X236000D01*
X387311Y12500D02*
X409500D01*
X345114Y86534D02*
Y118040D01*
X327839Y135315D02*
X345114Y118040D01*
X327839Y135315D02*
Y178311D01*
X318650Y187500D02*
X327839Y178311D01*
X364181Y105957D02*
X370501D01*
X377000Y57500D02*
Y99458D01*
X370501Y105957D02*
X377000Y99458D01*
Y57500D02*
X384417Y50083D01*
X386689Y107205D02*
X395441Y115957D01*
X386689Y68737D02*
X387728Y67698D01*
X386689Y68737D02*
Y107205D01*
X388728Y50346D02*
X388992Y50083D01*
X384417D02*
X388992D01*
X395441Y85957D02*
X399272Y82126D01*
Y67698D02*
Y82126D01*
X400272Y50346D02*
Y66698D01*
X399272Y67698D02*
X400272Y66698D01*
X196961Y25437D02*
X203611Y20309D01*
X195646Y12344D02*
X203611Y20309D01*
X168500Y171229D02*
X170421Y173150D01*
X187843D01*
X208884Y194191D01*
X251366D01*
X228765Y174251D02*
X245218D01*
X251366Y180400D01*
Y181620D01*
X208686Y183267D02*
X225346D01*
X205876Y180457D02*
X208686Y183267D01*
X205876Y168619D02*
Y180457D01*
X276511Y15997D02*
X280008Y12500D01*
X276511Y15997D02*
Y32019D01*
X182839Y92209D02*
Y93272D01*
X179229Y96882D02*
X182839Y93272D01*
X162450Y96882D02*
X179229D01*
X180957Y62163D02*
Y63114D01*
X179035Y65035D02*
X180957Y63114D01*
X164032Y65035D02*
X179035D01*
X241023Y85874D02*
X246547D01*
X256622Y75799D01*
Y54681D02*
Y75799D01*
X251992Y50051D02*
X256622Y54681D01*
X161500Y43748D02*
X162720D01*
X161500Y15342D02*
X164224Y12617D01*
X161500Y15342D02*
Y32252D01*
X180675D01*
X180894Y32032D01*
X235130Y91768D02*
X241023Y85874D01*
X222145Y91768D02*
X235130D01*
X240090Y75874D02*
X241023D01*
X238531Y74315D02*
X240090Y75874D01*
X223319Y74315D02*
X238531D01*
X221398Y72394D02*
X223319Y74315D01*
X193250Y61413D02*
X206720D01*
X192500Y62163D02*
X193250Y61413D01*
X210601Y90705D02*
Y91768D01*
X206720Y86824D02*
X210601Y90705D01*
X206720Y72909D02*
Y86824D01*
X220882Y72909D02*
X221398Y72394D01*
X206720Y72909D02*
X220882D01*
X210160Y92209D02*
X210601Y91768D01*
X194382Y92209D02*
X210160D01*
X199035Y113393D02*
X207729D01*
X196961D02*
X199035D01*
X193318Y117036D02*
X196961Y113393D01*
X182406Y117036D02*
X193318D01*
X172666Y126776D02*
X182406Y117036D01*
X171602Y126776D02*
X172666D01*
X160500Y121571D02*
X170326Y111745D01*
X183585D01*
X194066Y101264D01*
X187643Y127145D02*
X188815D01*
X185788Y129000D02*
X187643Y127145D01*
X185788Y129000D02*
Y129118D01*
X176587Y138319D02*
X185788Y129118D01*
X171602Y138319D02*
X176587D01*
X206270Y126812D02*
Y127757D01*
X178147Y153678D02*
X188611D01*
X167634Y148500D02*
X172969D01*
X178147Y153678D01*
X160500Y141366D02*
X167634Y148500D01*
X160500Y121571D02*
Y141366D01*
X187390Y165174D02*
X188611D01*
X181901Y159685D02*
X187390Y165174D01*
X168500Y159685D02*
X181901D01*
X205876Y167674D02*
Y168619D01*
X203377Y165174D02*
X205876Y167674D01*
X188611Y165174D02*
X203377D01*
X188611Y153678D02*
X188713Y153576D01*
Y138743D02*
Y153576D01*
Y138743D02*
X188815Y138641D01*
X205788Y127275D02*
X206270Y127757D01*
X188945Y127275D02*
X205788D01*
X188815Y127145D02*
X188945Y127275D01*
X205876Y154615D02*
Y155391D01*
X204940Y153678D02*
X205876Y154615D01*
X188611Y153678D02*
X204940D01*
X227376Y120765D02*
X228598Y121987D01*
X212318Y120765D02*
X227376D01*
X206270Y126812D02*
X212318Y120765D01*
X206073Y141182D02*
Y155194D01*
X205876Y155391D02*
X206073Y155194D01*
X251366Y181620D02*
Y194191D01*
X311959D02*
X318650Y187500D01*
X262862Y194191D02*
X311959D01*
X262862Y181620D02*
Y194191D01*
X309913Y117036D02*
X326264Y100685D01*
X228598Y131002D02*
X229601Y130000D01*
X326949Y68232D02*
Y100000D01*
X262338Y115318D02*
X262491Y115471D01*
Y127011D01*
X387500Y187500D02*
X387689Y187311D01*
Y160295D02*
Y187311D01*
X356221Y128827D02*
X387689Y160295D01*
X356221Y93917D02*
Y128827D01*
Y93917D02*
X364181Y85957D01*
X317323Y37157D02*
X325441Y29039D01*
X364181Y105957D02*
Y115957D01*
X351000Y187500D02*
X353000Y185500D01*
Y152500D02*
Y185500D01*
X289063Y31437D02*
X302590Y17909D01*
X289063Y31437D02*
Y100685D01*
X299766Y81132D02*
X300039Y81406D01*
X296634Y81132D02*
X299766D01*
X293289Y77787D02*
X296634Y81132D01*
X293289Y55874D02*
Y77787D01*
Y55874D02*
X296632Y52531D01*
X302590D01*
X327649Y67532D02*
X330189D01*
X326949Y68232D02*
X327649Y67532D01*
X326264Y100685D02*
X326949Y100000D01*
X226260Y13090D02*
Y28783D01*
X225288Y12117D02*
X226260Y13090D01*
X425000Y115071D02*
Y126347D01*
X418063Y108134D02*
X425000Y115071D01*
X417000Y108134D02*
X426419D01*
X433001Y101551D01*
Y73694D02*
Y101551D01*
X424500Y187000D02*
X425000Y187500D01*
X424500Y170153D02*
Y187000D01*
X432997Y73689D02*
X433001Y73694D01*
X424500Y126847D02*
X425000Y126347D01*
X417000Y108134D02*
X418063D01*
X416657Y108476D02*
X417000Y108134D01*
X406500Y108476D02*
X416657D01*
X403980Y105957D02*
X406500Y108476D01*
X395441Y105957D02*
X403980D01*
X416366Y95957D02*
X417000Y96591D01*
X395441Y95957D02*
X416366D01*
X437000Y12500D02*
Y26379D01*
X432997Y30382D02*
X437000Y26379D01*
X325441Y22000D02*
Y29039D01*
Y22000D02*
X334941Y12500D01*
X339689D01*
X361224Y38587D02*
X387311Y12500D01*
X361224Y38587D02*
Y57772D01*
X339689Y12500D02*
X347441D01*
X330189Y22000D02*
X339689Y12500D01*
X330189Y22000D02*
Y52531D01*
X302590Y17909D02*
X308000Y12500D01*
X302590Y17909D02*
Y52531D01*
X320975Y62532D02*
X330189D01*
X311583Y71925D02*
X320975Y62532D01*
X311583Y71925D02*
Y81406D01*
X330189Y67532D02*
X346824D01*
X346909Y67617D01*
X360304D01*
X361224Y66697D01*
Y57772D02*
Y66697D01*
X330189Y62532D02*
X330690Y62031D01*
X341905D01*
X343180Y60756D01*
X347760D01*
X349681Y58835D01*
Y57772D02*
Y58835D01*
X330189Y52531D02*
Y57531D01*
X190005Y191655D02*
X191410Y190250D01*
X191500D01*
X192086Y189664D01*
Y186260D02*
Y189664D01*
X187014Y191655D02*
X190005D01*
X185519D02*
X187014D01*
X181902Y195014D02*
Y196681D01*
X174586Y187698D02*
X181902Y195014D01*
X174736Y197267D02*
X181316D01*
X181902Y196681D01*
X184536Y196360D02*
X185770Y197594D01*
X184536Y193332D02*
Y196360D01*
X185770Y197594D02*
X192086D01*
X184536Y192638D02*
Y193332D01*
Y192638D02*
X185519Y191655D01*
X174586Y185434D02*
Y187698D01*
X175171Y184848D02*
X181902D01*
X174586Y185434D02*
X175171Y184848D01*
X185248D02*
X190673D01*
X169631Y185465D02*
Y188549D01*
X169045Y184880D02*
X169631Y185465D01*
X166170Y189135D02*
X169045D01*
X165106Y184880D02*
X169045D01*
Y189135D02*
X169631Y188549D01*
X170548Y183267D02*
X172128Y184848D01*
X172315D01*
X190673D02*
X192086Y186260D01*
X164834Y185151D02*
X165106Y184880D01*
X163189Y186796D02*
X164834Y185151D01*
X163189Y186796D02*
Y195037D01*
X165451Y197299D01*
X168938D01*
X157037Y196984D02*
X161124D01*
X153231D02*
X153593D01*
X154140D01*
X154327D01*
X157037D01*
X157623Y196398D01*
Y186060D02*
Y196398D01*
X157037Y185474D02*
X157623Y186060D01*
X155592Y185474D02*
X157037D01*
X154921D02*
X155592D01*
X153231Y187165D02*
X154921Y185474D01*
X153231Y187165D02*
Y189758D01*
D25*
X205788Y41145D02*
D03*
X188411Y78430D02*
D03*
X344847Y81132D02*
D03*
X196961Y25437D02*
D03*
X276511Y32019D02*
D03*
X199035Y113393D02*
D03*
X317323Y37157D02*
D03*
D26*
X345126Y152500D02*
D03*
X353000D02*
D03*
X318390Y100685D02*
D03*
X296937D02*
D03*
X326264D02*
D03*
X289063D02*
D03*
D27*
X316092Y139686D02*
D03*
X314498Y163897D02*
D03*
X272785Y139686D02*
D03*
X271191Y163897D02*
D03*
X432997Y73689D02*
D03*
Y30382D02*
D03*
X424500Y126847D02*
D03*
Y170153D02*
D03*
D28*
X241023Y85874D02*
D03*
X364181Y115957D02*
D03*
D29*
X272284Y55874D02*
D03*
X241023Y65874D02*
D03*
X272284Y75874D02*
D03*
Y65874D02*
D03*
Y85874D02*
D03*
X241023Y75874D02*
D03*
Y55874D02*
D03*
X395441Y95957D02*
D03*
Y105957D02*
D03*
Y85957D02*
D03*
Y115957D02*
D03*
X364181Y105957D02*
D03*
Y85957D02*
D03*
Y95957D02*
D03*
D30*
X228598Y121987D02*
D03*
X228765Y165236D02*
D03*
D31*
Y183267D02*
D03*
Y174251D02*
D03*
X228598Y140018D02*
D03*
Y131002D02*
D03*
M02*
