M48
;Layer_Color=9474304
;FILE_FORMAT=4:4
METRIC,LZ
;TYPE=PLATED
T01F00S00C0.7800
T02F00S00C0.8000
T03F00S00C1.2500
T04F00S00C1.6000
%
T01
X0092502Y0021833
Y0024373
Y0026913
Y0029453
X0100442
Y0026913
Y0024373
Y0021833
X006916Y0021812
Y0019272
Y0016732
Y0014192
X006122
Y0016732
Y0019272
Y0021812
T02
X01099812Y0007717
Y0018717
X0107823Y0032219
Y0043219
X0089662Y0038735
X0087662
X00802875Y00354802
X00798825Y00416298
X00688825
X00692875Y00354802
X0073422Y0025574
X0075422
X0080871
X0082871
T03
X0058064Y00309846
Y00332746
Y00355646
X00581062Y00419699
Y00442599
Y00465499
T04
X00500282Y0006461
X00522703Y00104508
X00505549Y00288018
X00702337Y00081327
X00806Y0009438
X0087591Y00206075
X00478565Y00199211
M30
