G04*
G04 #@! TF.GenerationSoftware,Altium Limited,Altium Designer,25.8.1 (18)*
G04*
G04 Layer_Color=2752767*
%FSLAX25Y25*%
%MOIN*%
G70*
G04*
G04 #@! TF.SameCoordinates,DBEC15BD-3F7B-4F99-A44D-75583D686E19*
G04*
G04*
G04 #@! TF.FilePolarity,Positive*
G04*
G01*
G75*
%ADD34C,0.00500*%
%ADD37C,0.00667*%
D34*
X205788Y39145D02*
X206788Y40145D01*
X207788D01*
X206788Y41145D01*
X207788Y42145D01*
X206788D01*
X205788Y43145D01*
X204788Y42145D01*
X203788D01*
X204788Y41145D01*
X203788Y40145D01*
X204788D01*
X205788Y39145D01*
X188411Y76430D02*
X189411Y77430D01*
X190411D01*
X189411Y78430D01*
X190411Y79430D01*
X189411D01*
X188411Y80430D01*
X187411Y79430D01*
X186411D01*
X187411Y78430D01*
X186411Y77430D01*
X187411D01*
X188411Y76430D01*
X344847Y79132D02*
X345847Y80132D01*
X346847D01*
X345847Y81132D01*
X346847Y82132D01*
X345847D01*
X344847Y83132D01*
X343847Y82132D01*
X342846D01*
X343847Y81132D01*
X342846Y80132D01*
X343847D01*
X344847Y79132D01*
X196961Y23437D02*
X197961Y24437D01*
X198961D01*
X197961Y25437D01*
X198961Y26437D01*
X197961D01*
X196961Y27437D01*
X195961Y26437D01*
X194961D01*
X195961Y25437D01*
X194961Y24437D01*
X195961D01*
X196961Y23437D01*
X276511Y30018D02*
X277511Y31018D01*
X278511D01*
X277511Y32019D01*
X278511Y33018D01*
X277511D01*
X276511Y34018D01*
X275511Y33018D01*
X274511D01*
X275511Y32019D01*
X274511Y31018D01*
X275511D01*
X276511Y30018D01*
X199035Y111393D02*
X200035Y112393D01*
X201035D01*
X200035Y113393D01*
X201035Y114393D01*
X200035D01*
X199035Y115393D01*
X198035Y114393D01*
X197035D01*
X198035Y113393D01*
X197035Y112393D01*
X198035D01*
X199035Y111393D01*
X317323Y35157D02*
X318323Y36157D01*
X319323D01*
X318323Y37157D01*
X319323Y38157D01*
X318323D01*
X317323Y39157D01*
X316323Y38157D01*
X315323D01*
X316323Y37157D01*
X315323Y36157D01*
X316323D01*
X317323Y35157D01*
X343126Y150500D02*
Y154500D01*
X347126D01*
Y150500D01*
X343126D01*
X351000D02*
Y154500D01*
X355000D01*
Y150500D01*
X351000D01*
X314092Y137686D02*
Y141686D01*
X318092D01*
Y137686D01*
X314092D01*
X312498Y161897D02*
Y165897D01*
X316498D01*
Y161897D01*
X312498D01*
X316390Y98685D02*
Y102685D01*
X320390D01*
Y98685D01*
X316390D01*
X294937D02*
Y102685D01*
X298937D01*
Y98685D01*
X294937D01*
X228598Y119987D02*
X226598Y123987D01*
X230598D01*
X228598Y119987D01*
X228765Y181267D02*
X226764Y185267D01*
X230765D01*
X228765Y181267D01*
Y172251D02*
X226764Y176251D01*
X230765D01*
X228765Y172251D01*
Y163236D02*
X226764Y167236D01*
X230765D01*
X228765Y163236D01*
X270785Y137686D02*
Y141686D01*
X274785D01*
Y137686D01*
X270785D01*
X269191Y161897D02*
Y165897D01*
X273191D01*
Y161897D01*
X269191D01*
X430997Y71689D02*
Y75689D01*
X434997D01*
Y71689D01*
X430997D01*
Y28382D02*
Y32382D01*
X434997D01*
Y28382D01*
X430997D01*
X422500Y124847D02*
Y128847D01*
X426500D01*
Y124847D01*
X422500D01*
Y168154D02*
Y172153D01*
X426500D01*
Y168154D01*
X422500D01*
X228598Y138018D02*
X226598Y142018D01*
X230598D01*
X228598Y138018D01*
Y129002D02*
X226598Y133002D01*
X230598D01*
X228598Y129002D01*
X324264Y98685D02*
Y102685D01*
X328264D01*
Y98685D01*
X324264D01*
X287063D02*
Y102685D01*
X291063D01*
Y98685D01*
X287063D01*
D37*
X243023Y85874D02*
G03*
X243023Y85874I-2000J0D01*
G01*
X274284Y55874D02*
G03*
X274284Y55874I-2000J0D01*
G01*
X243023Y65874D02*
G03*
X243023Y65874I-2000J0D01*
G01*
X274284Y75874D02*
G03*
X274284Y75874I-2000J0D01*
G01*
Y65874D02*
G03*
X274284Y65874I-2000J0D01*
G01*
Y85874D02*
G03*
X274284Y85874I-2000J0D01*
G01*
X243023Y75874D02*
G03*
X243023Y75874I-2000J0D01*
G01*
Y55874D02*
G03*
X243023Y55874I-2000J0D01*
G01*
X397441Y95957D02*
G03*
X397441Y95957I-2000J0D01*
G01*
Y105957D02*
G03*
X397441Y105957I-2000J0D01*
G01*
Y85957D02*
G03*
X397441Y85957I-2000J0D01*
G01*
Y115957D02*
G03*
X397441Y115957I-2000J0D01*
G01*
X366181D02*
G03*
X366181Y115957I-2000J0D01*
G01*
Y105957D02*
G03*
X366181Y105957I-2000J0D01*
G01*
Y85957D02*
G03*
X366181Y85957I-2000J0D01*
G01*
Y95957D02*
G03*
X366181Y95957I-2000J0D01*
G01*
M02*
