G04*
G04 #@! TF.GenerationSoftware,Altium Limited,Altium Designer,25.8.1 (18)*
G04*
G04 Layer_Color=16711935*
%FSLAX25Y25*%
%MOIN*%
G70*
G04*
G04 #@! TF.SameCoordinates,DBEC15BD-3F7B-4F99-A44D-75583D686E19*
G04*
G04*
G04 #@! TF.FilePolarity,Positive*
G04*
G01*
G75*
%ADD32C,0.00394*%
%ADD33C,0.00787*%
%ADD34C,0.00500*%
%ADD35C,0.00833*%
D32*
X358906Y152500D02*
G03*
X358906Y152500I-9843J0D01*
G01*
X332169Y100685D02*
G03*
X332169Y100685I-9843J0D01*
G01*
X302842D02*
G03*
X302842Y100685I-9843J0D01*
G01*
D33*
X206664Y123347D02*
G03*
X206664Y123347I-394J0D01*
G01*
X237224Y85874D02*
G03*
X237224Y85874I-394J0D01*
G01*
X325256Y50051D02*
G03*
X325256Y50051I-394J0D01*
G01*
X360382Y115957D02*
G03*
X360382Y115957I-394J0D01*
G01*
X229158Y156338D02*
G03*
X229158Y156338I-394J0D01*
G01*
X228992Y113089D02*
G03*
X228992Y113089I-394J0D01*
G01*
X206270Y150981D02*
G03*
X206270Y150981I-394J0D01*
G01*
D34*
X250727Y109676D02*
Y115975D01*
X263326D01*
Y109676D02*
Y115975D01*
X250727Y109676D02*
X263326D01*
X158350Y31701D02*
Y44299D01*
Y31701D02*
X164649D01*
Y44299D01*
X158350D02*
X164649D01*
X191964Y126594D02*
Y139192D01*
X185665D02*
X191964D01*
X185665Y126594D02*
Y139192D01*
Y126594D02*
X191964D01*
X191760Y153127D02*
Y165726D01*
X185461D02*
X191760D01*
X185461Y153127D02*
Y165726D01*
Y153127D02*
X191760D01*
X209617Y128741D02*
Y140001D01*
X202924Y128741D02*
X209617D01*
X202924Y140001D02*
X209617D01*
X202924Y128741D02*
Y140001D01*
X244153Y89752D02*
X269153D01*
Y51996D02*
Y89752D01*
X244153Y51996D02*
X269153D01*
X244153D02*
Y89752D01*
X305366Y72827D02*
X327413D01*
X305366Y47236D02*
Y72827D01*
X327413Y47236D02*
Y72827D01*
X305366Y47236D02*
X327413D01*
X367311Y119835D02*
X392311D01*
Y82079D02*
Y119835D01*
X367311Y82079D02*
X392311D01*
X367311D02*
Y119835D01*
X224060Y159291D02*
Y189212D01*
X234690Y159291D02*
Y189212D01*
X224060D02*
X234690D01*
X224060Y159291D02*
X234690D01*
X168138Y125736D02*
X175067D01*
X168138Y139358D02*
X175067D01*
Y125736D02*
Y139358D01*
X168138Y125736D02*
Y139358D01*
X245113Y33193D02*
Y40122D01*
X258735Y33193D02*
Y40122D01*
X245113Y33193D02*
X258735D01*
X245113Y40122D02*
X258735D01*
X307825Y134568D02*
Y139686D01*
X281053Y134568D02*
Y139686D01*
X307825D02*
X313730D01*
X281053Y134568D02*
X307825D01*
X275148Y139686D02*
X281053D01*
Y144804D01*
X307825Y139686D02*
Y144804D01*
X281053D02*
X307825D01*
X279459Y163897D02*
Y169015D01*
X306230Y163897D02*
Y169015D01*
X273553Y163897D02*
X279459D01*
Y169015D02*
X306230D01*
Y163897D02*
X312136D01*
X306230Y158779D02*
Y163897D01*
X279459Y158779D02*
Y163897D01*
Y158779D02*
X306230D01*
X177429Y44615D02*
X184359D01*
X177429Y30993D02*
X184359D01*
X177429D02*
Y44615D01*
X184359Y30993D02*
Y44615D01*
X195422Y88744D02*
Y95673D01*
X181800Y88744D02*
Y95673D01*
X195422D01*
X181800Y88744D02*
X195422D01*
X165035Y158646D02*
X171965D01*
X165035Y172268D02*
X171965D01*
Y158646D02*
Y172268D01*
X165035Y158646D02*
Y172268D01*
X179917Y58698D02*
Y65628D01*
X193539Y58698D02*
Y65628D01*
X179917Y58698D02*
X193539D01*
X179917Y65628D02*
X193539D01*
X209562Y88303D02*
Y95232D01*
X223184Y88303D02*
Y95232D01*
X209562Y88303D02*
X223184D01*
X209562Y95232D02*
X223184D01*
X217933Y59811D02*
X224862D01*
X217933Y73433D02*
X224862D01*
Y59811D02*
Y73433D01*
X217933Y59811D02*
Y73433D01*
X413535Y109173D02*
X420465D01*
X413535Y95551D02*
X420465D01*
X413535D02*
Y109173D01*
X420465Y95551D02*
Y109173D01*
X432997Y65421D02*
X438115D01*
X432997Y38649D02*
X438115D01*
X432997Y65421D02*
Y71327D01*
X438115Y38649D02*
Y65421D01*
X432997Y32744D02*
Y38649D01*
X427879D02*
X432997D01*
X427879Y65421D02*
X432997D01*
X427879Y38649D02*
Y65421D01*
X362264Y54307D02*
Y61236D01*
X348642Y54307D02*
Y61236D01*
X362264D01*
X348642Y54307D02*
X362264D01*
X312622Y77941D02*
Y84870D01*
X299000Y77941D02*
Y84870D01*
X312622D01*
X299000Y77941D02*
X312622D01*
X401311Y46882D02*
Y53811D01*
X387689Y46882D02*
Y53811D01*
X401311D01*
X387689Y46882D02*
X401311D01*
X400311Y64233D02*
Y71163D01*
X386689Y64233D02*
Y71163D01*
X400311D01*
X386689Y64233D02*
X400311D01*
X419382Y135114D02*
X424500D01*
X419382Y161886D02*
X424500D01*
Y129209D02*
Y135114D01*
X419382D02*
Y161886D01*
X424500D02*
Y167791D01*
Y161886D02*
X429618D01*
X424500Y135114D02*
X429618D01*
Y161886D01*
X223894Y116042D02*
X234524D01*
Y145963D01*
X223894D02*
X234524D01*
X223894Y116042D02*
Y145963D01*
X209223Y156375D02*
Y167635D01*
X202530Y156375D02*
X209223D01*
X202530Y167635D02*
X209223D01*
X202530Y156375D02*
Y167635D01*
X250597Y124015D02*
X263196D01*
Y130314D01*
X250597D02*
X263196D01*
X250597Y124015D02*
Y130314D01*
X229410Y28232D02*
Y40830D01*
X223111D02*
X229410D01*
X223111Y28232D02*
Y40830D01*
Y28232D02*
X229410D01*
X209870Y60862D02*
Y73461D01*
X203571D02*
X209870D01*
X203571Y60862D02*
Y73461D01*
Y60862D02*
X209870D01*
X250815Y197340D02*
X263413D01*
X250815Y191041D02*
Y197340D01*
Y191041D02*
X263413D01*
Y197340D01*
X250815Y184770D02*
X263413D01*
X250815Y178471D02*
Y184770D01*
Y178471D02*
X263413D01*
Y184770D01*
D35*
X336071Y152863D02*
X333405D01*
X334738Y151530D02*
Y154196D01*
X309335Y101048D02*
X306669D01*
X308002Y99715D02*
Y102381D01*
X280008Y101048D02*
X277342D01*
X278675Y99715D02*
Y102381D01*
M02*
